<?xml version="1.0" encoding="utf-8"?>
<!-- Generator: Adobe Illustrator 18.0.0, SVG Export Plug-In . SVG Version: 6.00 Build 0)  -->
<!DOCTYPE svg PUBLIC "-//W3C//DTD SVG 1.1//EN" "http://www.w3.org/Graphics/SVG/1.1/DTD/svg11.dtd">
<svg version="1.1" id="Layer_1" xmlns="http://www.w3.org/2000/svg" xmlns:xlink="http://www.w3.org/1999/xlink" x="0px" y="0px"
	 viewBox="0 0 133.2 68.6" enable-background="new 0 0 133.2 68.6" xml:space="preserve">
<g>
	<defs>
		<rect id="SVGID_1_" y="0" width="133.2" height="68.6"/>
	</defs>
	<clipPath id="SVGID_2_">
		<use xlink:href="#SVGID_1_"  overflow="visible"/>
	</clipPath>
	<path clip-path="url(#SVGID_2_)" fill="#FFFFFF" d="M98.7,22.6c-2.8,4.4-10.9,3.9-10.9,3.9s-4.7,0-7.9-2.2c-5-2.9-6.4-7.7-7-11.5
		c-0.6-3.8-0.4-6.9,4.5-8.9c5-2,11.9-1.5,17.2-0.9c5.3,0.6,6,4.3,6,4.3C101.4,9.5,101.6,18.2,98.7,22.6 M60.2,12.8
		c-0.6,3.8-2,8.6-7,11.5c-3.2,2.2-7.9,2.2-7.9,2.2s-8,0.4-10.9-3.9c-2.8-4.4-2.7-13-2-15.3c0,0,0.7-3.7,6-4.3
		c5.3-0.6,12.2-1.1,17.2,0.9C60.6,5.9,60.8,9,60.2,12.8 M107.9,2.9c0,0,0.1-0.9-1.1-1.1c0,0-4.7-0.7-9.3-1.4
		c-4.6-0.6-13.1-0.7-19.9,0.7c-6.7,1.4-6.1,2-10.9,2c0,0-0.1,0-0.1,0c0,0-0.1,0-0.1,0c-4.9,0-4.2-0.6-10.9-2
		c-6.7-1.4-15.3-1.3-19.9-0.7c-4.6,0.6-9.3,1.4-9.3,1.4c-1.2,0.2-1.1,1.1-1.1,1.1s0,4.6,0.3,5c0.9,0.1,2.6,1.6,3,4.9
		C29.8,26,36.3,27.6,38,28.1c1.8,0.6,8.5,2.5,16.1-1.5c7.6-4,10-14.7,10.4-15.9c0.3-1.2,2-1.2,2-1.2s0-0.1,0.1-0.1
		c0.1,0.1,0.1,0.1,0.1,0.1s1.6,0,2,1.2C69,12,71.4,22.6,79.1,26.7c7.6,4,14.4,2.1,16.1,1.5c1.8-0.6,8.3-2.2,9.4-15.3
		c0.4-3.4,2.1-4.8,3-4.9C108,7.5,107.9,2.9,107.9,2.9"/>
	<path clip-path="url(#SVGID_2_)" fill="#FFFFFF" d="M9.8,48.2c4.6,0,6.9,2.4,6.9,2.4l-1.2,1.5c0,0-2.2-2-5.7-2
		c-4.4,0-7.8,3.6-7.8,8.3c0,4.8,3.3,8.4,7.8,8.4c3.9,0,6.2-2.9,6.2-2.9v-2.4c0-0.4-0.2-0.6-0.6-0.6h-1.2v-1.7h2
		c1.2,0,1.7,0.5,1.7,1.7v7.5h-1.8v-1.5c0-0.4,0-0.8,0-0.8h-0.1c0,0-2.3,2.7-6.5,2.7C4.3,68.6,0,64.3,0,58.4
		C0,52.7,4.3,48.2,9.8,48.2"/>
	<path clip-path="url(#SVGID_2_)" fill="#FFFFFF" d="M31,59.8c-0.1-2.9-1.9-4.3-4-4.3c-2.3,0-4.4,1.5-4.9,4.3H31z M27,53.8
		c3.9,0,5.9,3,5.9,6.5c0,0.3-0.1,1-0.1,1H22c0.1,3.6,2.6,5.6,5.5,5.6c2.6,0,4.2-1.7,4.2-1.7l0.9,1.4c0,0-2,2-5.2,2
		c-4.2,0-7.4-3-7.4-7.4C20.1,56.6,23.2,53.8,27,53.8"/>
	<path clip-path="url(#SVGID_2_)" fill="#FFFFFF" d="M45.6,59.8c-0.1-2.9-1.9-4.3-4-4.3c-2.3,0-4.4,1.5-4.9,4.3H45.6z M41.7,53.8
		c3.9,0,5.9,3,5.9,6.5c0,0.3-0.1,1-0.1,1H36.7c0.1,3.6,2.6,5.6,5.5,5.6c2.6,0,4.2-1.7,4.2-1.7l0.9,1.4c0,0-2,2-5.2,2
		c-4.2,0-7.4-3-7.4-7.4C34.7,56.6,37.9,53.8,41.7,53.8"/>
	<path clip-path="url(#SVGID_2_)" fill="#FFFFFF" d="M50.6,50.8c0-0.4-0.2-0.6-0.6-0.6h-1.2v-1.7h2c1.2,0,1.7,0.4,1.7,1.6v9.4H54
		c0.5,0,1.2-0.2,1.6-0.7l3.6-4.7h2.3l-4.1,5.2c-0.7,0.9-1.1,1-1.1,1v0.1c0,0,0.4,0.2,0.9,1l2.6,4.6c0.3,0.5,0.5,0.6,1.3,0.6h0.8v1.7
		h-1.3c-1.4,0-1.8-0.2-2.4-1.4l-2.8-5c-0.3-0.6-1-0.6-1.5-0.6h-1.3v7.1h-1.9V50.8z"/>
	<path clip-path="url(#SVGID_2_)" fill="#FFFFFF" d="M71.5,50.9c0-0.4-0.2-0.6-0.6-0.6h-1.2v-1.7h2.1c1.2,0,1.7,0.5,1.7,1.7v15.6
		c0,0.4,0.2,0.6,0.6,0.6h6.5c0.4,0,0.6-0.2,0.6-0.6v-1.3h1.9v2c0,1.2-0.5,1.7-1.7,1.7h-8.2c-1.2,0-1.7-0.5-1.7-1.7V50.9z"/>
	<path clip-path="url(#SVGID_2_)" fill="#FFFFFF" d="M88.9,67c2.7,0,4.3-2.8,4.3-5.2v-0.6h-0.8c-2.2,0-6.6,0.1-6.6,3.2
		C85.7,65.6,86.8,67,88.9,67 M92.4,59.6h0.8v-0.2c0-2.9-1.1-4-3.6-4c-0.7,0-2.7,0.2-2.7,1.2v0.9H85v-1.3c0-2,3.4-2.4,4.6-2.4
		c4.5,0,5.5,2.4,5.5,5.4V66c0,0.4,0.2,0.6,0.6,0.6h1.2v1.7h-1.9c-1.2,0-1.7-0.5-1.7-1.7c0-0.6,0-1,0-1h-0.1c0,0-1.2,3.1-4.7,3.1
		c-2.4,0-4.8-1.4-4.8-4.2C83.8,59.7,90,59.6,92.4,59.6"/>
	<path clip-path="url(#SVGID_2_)" fill="#FFFFFF" d="M105.5,66.9c2.5,0,4.5-2.1,4.5-5.7c0-3.4-1.9-5.7-4.5-5.7
		c-2.4,0-4.6,1.7-4.6,5.7C101,64.1,102.4,66.9,105.5,66.9 M99.1,50.8c0-0.4-0.2-0.6-0.6-0.6h-1.2v-1.7h2c1.2,0,1.7,0.5,1.7,1.7v5.1
		c0,0.6-0.1,1.1-0.1,1.1h0.1c0,0,1.2-2.7,4.8-2.7c3.8,0,6.1,3,6.1,7.4c0,4.5-2.7,7.4-6.4,7.4c-3.4,0-4.6-2.7-4.6-2.7h-0.1
		c0,0,0.1,0.5,0.1,1.1v1.2h-1.9V50.8z"/>
	<path clip-path="url(#SVGID_2_)" fill="#FFFFFF" d="M124.5,59.8c-0.1-2.9-1.9-4.3-4-4.3c-2.3,0-4.4,1.5-4.9,4.3H124.5z M120.5,53.8
		c3.9,0,5.9,3,5.9,6.5c0,0.3-0.1,1-0.1,1h-10.8c0.1,3.6,2.6,5.6,5.5,5.6c2.6,0,4.2-1.7,4.2-1.7l0.9,1.4c0,0-2,2-5.2,2
		c-4.2,0-7.4-3-7.4-7.4C113.6,56.6,116.7,53.8,120.5,53.8"/>
	<path clip-path="url(#SVGID_2_)" fill="#FFFFFF" d="M129.5,50.8c0-0.4-0.2-0.6-0.6-0.6h-1.2v-1.7h2c1.2,0,1.7,0.5,1.7,1.7V66
		c0,0.4,0.2,0.6,0.6,0.6h1.2v1.7h-2c-1.2,0-1.7-0.5-1.7-1.7V50.8z"/>
</g>
<polygon fill="#FFFFFF" points="83.2,20 81.4,20 83.9,7.8 85.7,7.8 "/>
<polygon fill="#FFFFFF" points="87.5,8.7 87.1,11 92.1,13.9 87.1,16.8 87.5,19.1 96.6,13.9 "/>
<polygon fill="#FFFFFF" points="48.9,19.1 49.4,16.8 44.4,13.9 49.4,11 48.9,8.7 39.9,13.9 "/>
</svg>
